<?xml version="1.0" standalone="no"?>
<!DOCTYPE svg PUBLIC "-//W3C//DTD SVG 20010904//EN"
 "http://www.w3.org/TR/2001/REC-SVG-20010904/DTD/svg10.dtd">
<svg version="1.0" xmlns="http://www.w3.org/2000/svg"
 width="860.000000pt" height="534.000000pt" viewBox="0 0 860.000000 534.000000"
 preserveAspectRatio="xMidYMid meet">

<g transform="translate(0.000000,534.000000) scale(0.100000,-0.100000)"
fill="#000000" stroke="none">
<path d="M3985 4929 c-585 -39 -1205 -211 -1741 -485 -751 -383 -1379 -945
-1849 -1656 l-97 -148 87 -132 c352 -536 793 -989 1304 -1342 1486 -1025 3365
-1100 4916 -195 627 366 1162 872 1582 1496 l115 172 -87 133 c-486 739 -1135
1316 -1910 1697 -725 357 -1511 513 -2320 460z m495 -889 c176 -22 377 -92
540 -189 278 -165 501 -440 604 -744 55 -160 70 -257 70 -452 1 -192 -10 -266
-61 -430 -108 -342 -361 -641 -686 -810 -210 -110 -409 -159 -647 -159 -697 0
-1279 503 -1387 1199 -19 129 -12 352 16 482 80 367 303 693 609 889 155 101
398 191 567 213 100 12 276 13 375 1z"/>
<path d="M4215 3261 c-151 -25 -251 -76 -361 -186 -125 -124 -178 -253 -177
-425 2 -281 191 -519 469 -590 329 -84 673 115 760 440 24 93 22 235 -6 325
-62 200 -237 368 -436 419 -77 19 -186 27 -249 17z"/>
</g>
</svg>
