<?xml version="1.0" standalone="no"?>
<!DOCTYPE svg PUBLIC "-//W3C//DTD SVG 20010904//EN"
 "http://www.w3.org/TR/2001/REC-SVG-20010904/DTD/svg10.dtd">
<svg version="1.0" xmlns="http://www.w3.org/2000/svg"
 width="256.000000pt" height="256.000000pt" viewBox="0 0 256.000000 256.000000"
 preserveAspectRatio="xMidYMid meet">

<g transform="translate(0.000000,256.000000) scale(0.100000,-0.100000)"
fill="#000000" stroke="none">
<path d="M2133 2350 c-12 -5 -47 -40 -77 -77 -153 -190 -690 -881 -697 -898
-16 -36 -38 -357 -26 -383 19 -42 50 -39 232 22 l170 57 230 296 c127 163 296
382 378 485 201 258 201 243 -17 413 -122 95 -144 105 -193 85z m145 -214 c39
-31 72 -60 72 -65 0 -12 -72 -101 -82 -101 -10 0 -178 128 -178 136 0 2 19 28
42 58 36 47 45 53 58 42 8 -7 48 -38 88 -70z m-191 -193 c41 -32 81 -63 90
-70 13 -10 -22 -58 -232 -328 -136 -173 -251 -318 -255 -320 -11 -7 -181 127
-178 140 4 13 489 635 496 635 3 0 38 -26 79 -57z m-554 -770 l28 -23 -26 -10
c-66 -25 -75 -24 -75 6 0 16 3 39 6 52 7 24 4 25 67 -25z"/>
<path d="M453 2240 c-95 -19 -184 -94 -219 -186 -18 -47 -19 -86 -19 -839 l0
-790 23 -47 c31 -61 81 -112 145 -146 l52 -27 760 0 760 0 53 24 c31 14 70 43
96 72 75 83 76 91 76 524 0 357 -1 383 -18 398 -24 22 -65 21 -85 -1 -15 -17
-17 -57 -17 -373 0 -213 -4 -369 -10 -391 -14 -48 -55 -97 -97 -114 -26 -11
-167 -14 -756 -14 l-724 0 -43 23 c-30 16 -51 37 -67 67 l-23 43 0 758 c0 510
3 767 11 786 15 42 68 92 109 103 21 6 266 10 616 10 559 0 582 1 598 19 26
28 18 82 -14 98 -19 10 -155 12 -595 12 -314 -1 -589 -5 -612 -9z"/>
<path d="M645 1688 c-41 -23 -47 -66 -15 -98 19 -19 33 -20 333 -20 351 0 357
1 357 65 0 64 -7 65 -350 65 -208 -1 -311 -4 -325 -12z"/>
<path d="M627 1232 c-21 -23 -22 -51 -1 -80 15 -22 19 -22 238 -22 203 0 224
2 239 18 21 23 22 66 1 86 -13 14 -49 16 -238 16 -203 0 -224 -2 -239 -18z"/>
<path d="M630 790 c-11 -11 -20 -31 -20 -45 0 -14 9 -34 20 -45 20 -20 33 -20
554 -20 524 0 534 0 560 21 31 25 34 61 6 89 -20 20 -33 20 -560 20 -527 0
-540 0 -560 -20z"/>
</g>
</svg>
