<?xml version="1.0" standalone="no"?>
<!DOCTYPE svg PUBLIC "-//W3C//DTD SVG 20010904//EN"
 "http://www.w3.org/TR/2001/REC-SVG-20010904/DTD/svg10.dtd">
<svg version="1.0" xmlns="http://www.w3.org/2000/svg"
 width="128.000000pt" height="128.000000pt" viewBox="0 0 128.000000 128.000000"
 preserveAspectRatio="xMidYMid meet">

<g transform="translate(0.000000,128.000000) scale(0.100000,-0.100000)"
fill="#000000" stroke="none">
<path d="M63 1252 c-23 -15 -44 -29 -47 -32 -3 -3 32 -6 77 -6 48 0 106 -8
140 -18 52 -16 59 -16 73 -2 9 10 11 16 4 16 -7 0 -24 9 -39 19 -35 25 -108
51 -141 50 -14 0 -44 -12 -67 -27z"/>
<path d="M955 1259 c-51 -5 -88 -15 -130 -38 -60 -32 -82 -47 -53 -36 11 5 16
1 15 -12 -2 -20 -5 -20 103 10 56 16 101 22 177 21 l102 0 -32 19 c-53 33
-106 44 -182 36z"/>
<path d="M118 1124 c-16 -8 -30 -26 -34 -42 -3 -15 -7 -32 -9 -39 -2 -7 0 -15
5 -18 6 -4 10 6 10 20 0 36 16 62 48 79 15 9 23 15 17 15 -5 0 -22 -6 -37 -15z"/>
<path d="M762 1093 c-7 -3 -24 -21 -37 -41 -14 -20 -25 -31 -25 -24 0 21 -41
3 -77 -35 -19 -19 -38 -53 -45 -78 -7 -25 -16 -45 -20 -45 -14 0 -9 -37 7 -50
8 -7 16 -9 16 -4 1 5 2 14 3 20 0 6 9 18 19 28 10 10 26 35 36 55 18 34 22 37
63 36 24 -1 49 -4 55 -8 6 -4 18 -5 25 -2 8 3 23 -3 33 -15 28 -31 79 -27 106
9 21 28 23 29 45 14 13 -8 24 -22 24 -29 0 -21 79 -19 87 2 6 17 -32 58 -57
60 -8 1 -37 9 -64 19 -77 27 -162 23 -219 -10 -48 -27 -70 -28 -48 -1 7 8 18
13 25 10 9 -3 15 6 19 25 4 16 16 39 28 50 23 22 23 23 1 14z m98 -103 c0 -5
-5 -10 -11 -10 -5 0 -7 5 -4 10 3 6 8 10 11 10 2 0 4 -4 4 -10z"/>
<path d="M139 1042 c-19 -9 -79 -59 -79 -67 0 -3 13 -4 28 -3 15 1 33 -1 40
-6 7 -4 12 -2 12 5 0 7 10 3 24 -10 33 -31 76 -25 94 11 11 24 15 26 37 16 14
-6 25 -17 25 -25 0 -7 11 -13 24 -13 31 0 56 10 56 21 0 12 -48 54 -63 55 -7
0 -30 6 -52 12 -43 13 -120 15 -146 4z"/>
<path d="M272 868 c-29 -12 -51 -22 -49 -24 6 -6 81 18 102 32 27 19 10 17
-53 -8z"/>
<path d="M921 834 c-30 -8 -57 -17 -60 -20 -10 -10 82 7 114 21 40 18 13 17
-54 -1z"/>
<path d="M587 813 c-12 -12 -7 -33 8 -33 8 0 15 -8 15 -19 0 -12 -9 -20 -29
-24 -16 -4 -49 -25 -73 -48 -23 -22 -54 -46 -68 -52 -21 -8 -22 -11 -7 -14 13
-4 26 -23 14 -23 -1 0 -26 -9 -56 -20 -39 -14 -59 -16 -72 -9 -14 7 -21 4 -33
-13 -8 -13 -18 -35 -21 -49 -6 -23 -3 -27 19 -33 26 -6 26 -7 10 -37 -22 -43
-11 -46 34 -10 45 35 78 42 68 14 -5 -14 -2 -13 11 4 17 20 25 21 163 18 174
-3 157 -1 165 -25 5 -16 10 -18 25 -10 25 13 30 13 30 -5 0 -18 17 -20 22 -3
7 19 28 -1 28 -27 0 -28 -11 -37 -30 -25 -9 5 -19 5 -27 -2 -9 -7 -17 -7 -27
1 -11 9 -20 9 -35 2 -16 -9 -24 -7 -39 9 -15 16 -21 18 -25 7 -4 -10 -33 -14
-113 -16 -121 -3 -141 -5 -166 -16 -36 -15 -57 13 -48 60 1 6 -2 6 -9 0 -13
-13 -24 -155 -11 -155 5 0 12 -10 16 -23 l8 -22 6 25 c4 17 12 24 26 22 10 -1
33 -2 49 -1 39 1 59 0 120 -6 28 -3 67 -5 88 -5 20 0 37 -4 37 -10 0 -5 9 -1
21 11 12 12 27 18 36 15 9 -4 22 -1 29 5 8 6 20 9 28 6 8 -3 20 1 26 9 18 21
30 17 30 -10 0 -31 -22 -50 -38 -34 -9 9 -12 7 -12 -10 0 -16 -6 -22 -23 -22
-15 0 -28 -9 -34 -23 -9 -19 -24 -25 -89 -36 -67 -12 -75 -15 -51 -22 41 -11
142 20 210 65 61 40 117 119 117 164 0 16 6 22 21 22 15 0 19 5 15 15 -7 19 4
19 32 -1 13 -9 22 -11 22 -4 0 6 5 8 10 5 39 -24 -63 159 -110 199 -16 13 -32
35 -35 49 -4 14 -33 50 -64 81 -57 54 -63 56 -192 92 -8 2 -18 1 -22 -3z m120
-59 c24 -24 25 -27 10 -36 -10 -5 -37 -8 -60 -6 l-43 3 8 33 c7 25 14 32 34
32 14 0 37 -12 51 -26z m-162 -157 c4 -12 16 -27 28 -32 12 -6 21 -18 19 -27
-3 -21 22 -26 71 -16 38 8 127 -7 138 -24 3 -5 16 -10 27 -11 12 -1 22 -5 22
-10 0 -5 -26 -5 -57 -1 -32 4 -140 7 -240 8 -176 0 -182 1 -166 18 9 10 18 16
20 14 8 -7 64 42 101 88 18 22 31 20 37 -7z"/>
<path d="M262 663 c-15 -6 -46 -63 -38 -71 3 -3 6 0 6 6 0 6 12 24 26 41 14
17 24 31 22 30 -1 0 -9 -3 -16 -6z"/>
<path d="M334 188 c-4 -13 -11 -26 -16 -29 -12 -8 0 -36 19 -43 9 -4 23 0 32
7 9 8 24 17 34 20 26 10 20 25 -8 19 -20 -3 -27 1 -35 22 -12 32 -17 33 -26 4z"/>
<path d="M180 155 c-6 -8 -10 -19 -8 -24 1 -6 8 1 15 14 13 28 11 31 -7 10z"/>
<path d="M1 78 l-1 -78 106 0 105 0 -2 28 c-2 15 -7 33 -12 40 -6 7 -5 18 3
27 12 15 3 16 -63 6 -4 0 -13 -13 -19 -28 l-11 -28 -6 25 -7 25 -6 -24 c-7
-25 -28 -21 -28 6 0 9 -6 13 -14 10 -10 -4 -20 7 -30 31 l-15 37 0 -77z"/>
<path d="M1070 95 c0 -32 -8 -40 -32 -36 -5 0 -8 -6 -8 -14 0 -8 -5 -15 -11
-15 -5 0 -8 4 -4 9 3 5 1 12 -5 16 -5 3 -10 1 -10 -5 0 -7 -7 -10 -15 -6 -8 3
-15 1 -15 -4 0 -6 5 -10 10 -10 6 0 10 -7 10 -15 0 -24 201 -22 223 3 21 24
31 68 17 77 -13 8 -46 -23 -53 -51 -2 -10 -5 -2 -6 19 -1 25 -6 37 -16 37 -7
0 -18 8 -24 18 -9 15 -11 15 -20 -8 -6 -16 -10 -19 -10 -9 -1 9 -8 19 -16 23
-12 4 -15 -3 -15 -29z m153 -20 c-3 -9 -8 -14 -10 -11 -3 3 -2 9 2 15 9 16 15
13 8 -4z"/>
<path d="M1260 48 c0 -13 5 -30 10 -38 7 -11 10 -7 10 17 0 17 -4 35 -10 38
-6 3 -10 -4 -10 -17z"/>
<path d="M1220 15 c-10 -13 -9 -15 8 -15 15 0 20 5 16 15 -4 8 -7 15 -9 15 -1
0 -8 -7 -15 -15z"/>
</g>
</svg>
