<?xml version="1.0" encoding="UTF-8"?>
<svg xmlns="http://www.w3.org/2000/svg" xmlns:xlink="http://www.w3.org/1999/xlink" width="256px" height="256px" viewBox="0 0 256 256" version="1.1">
<g id="surface1">
<path style=" stroke:none;fill-rule:nonzero;fill:rgb(0%,0%,0%);fill-opacity:1;" d="M 49 1.800781 C 47.5 2.199219 45.050781 3.25 43.648438 4.101562 C 40.199219 6.199219 5 41.5 3.601562 44.25 C 0.851562 49.800781 1 43.75 1 143.949219 C 1 204.351562 1.199219 237 1.550781 238.449219 C 3.351562 246.300781 9.949219 252.75 17.898438 254.449219 C 19.800781 254.851562 41.648438 255 94.648438 255 C 159.648438 255 169.148438 254.898438 171.75 254.25 C 179.898438 252.101562 185.949219 245.699219 187.5 237.5 C 187.800781 235.949219 188 224.550781 188 209.800781 L 188 184.75 L 219.949219 152.75 C 256.25 116.351562 254.75 118.199219 254.75 110.5 C 254.75 103.949219 253.351562 101.5 244.550781 92.851562 C 235.800781 84.199219 234 83.25 227 83.25 C 219.699219 83.25 219.398438 83.5 202.351562 100.398438 L 188 114.699219 L 188 67.898438 C 188 38.601562 187.800781 20.148438 187.5 18.5 C 185.949219 10.300781 179.898438 3.898438 171.75 1.75 C 167.398438 0.648438 53.25 0.648438 49 1.800781 Z M 170.300781 16.300781 C 171.050781 16.851562 172.148438 17.949219 172.699219 18.699219 C 173.75 20.050781 173.75 20.351562 173.800781 74.5 L 173.851562 128.898438 L 149.148438 153.550781 C 135.550781 167.148438 124.101562 178.851562 123.699219 179.601562 C 123.148438 180.699219 123 183.851562 123 195.550781 C 123 216.25 121.800781 215 142.199219 215 C 152.949219 215 156.398438 214.851562 157.648438 214.300781 C 158.550781 213.898438 162.398438 210.449219 166.25 206.550781 C 170.101562 202.648438 173.398438 199.5 173.648438 199.5 C 173.851562 199.5 174 207.648438 173.898438 217.601562 C 173.75 238.148438 173.75 238.050781 169.75 240 C 167.699219 241 166.398438 241 94.449219 241 C 23 241 21.199219 240.949219 19.101562 240 C 17.449219 239.25 16.75 238.550781 16 236.800781 C 15 234.648438 15 233.050781 15.101562 145.148438 L 15.25 55.75 L 33.25 55.5 C 52.800781 55.25 52.75 55.25 54.5 52.351562 C 55.449219 50.851562 55.5 49.699219 55.5 33.199219 C 55.5 23.550781 55.648438 15.5 55.851562 15.351562 C 56.050781 15.148438 81.550781 15.050781 112.550781 15.101562 C 168.601562 15.25 168.949219 15.25 170.300781 16.300781 Z M 41.5 33.5 L 41.5 41.5 L 25.25 41.5 L 33.25 33.5 C 37.648438 29.101562 41.300781 25.5 41.351562 25.5 C 41.449219 25.5 41.5 29.101562 41.5 33.5 Z M 234.648438 102.949219 C 242.449219 110.648438 242.449219 110.300781 235.699219 117.050781 L 230.75 122 L 215.75 107 L 220.800781 102 C 224.800781 98.050781 226.148438 97 227.25 97 C 228.398438 97 229.851562 98.148438 234.648438 102.949219 Z M 186.25 166.5 L 151.75 201 L 137 201 L 137 185.75 L 205.75 117 L 220.75 132 Z M 186.25 166.5 "/>
<path style=" stroke:none;fill-rule:nonzero;fill:rgb(0%,0%,0%);fill-opacity:1;" d="M 71.101562 42 C 66.300781 44.949219 66.398438 51.851562 71.351562 54.25 C 72.699219 54.898438 78.050781 55 113.851562 55 C 153.550781 55 154.800781 54.949219 156.351562 54 C 160.800781 51.300781 160.449219 44 155.800781 41.800781 C 154.300781 41.101562 149.75 41 113.398438 41 C 73.699219 41 72.699219 41.050781 71.101562 42 Z M 71.101562 42 "/>
<path style=" stroke:none;fill-rule:nonzero;fill:rgb(0%,0%,0%);fill-opacity:1;" d="M 32.75 81.949219 C 30.898438 83.050781 29.75 84.699219 29.300781 86.851562 C 28.800781 89.101562 30.449219 92.699219 32.601562 94 C 34.25 95 34.898438 95 94.148438 95 C 148.148438 95 154.25 94.898438 155.800781 94.199219 C 160.699219 91.851562 160.699219 84.148438 155.800781 81.800781 C 154.25 81.101562 148.148438 81 94.148438 81 C 36.699219 81 34.199219 81.050781 32.75 81.949219 Z M 32.75 81.949219 "/>
<path style=" stroke:none;fill-rule:nonzero;fill:rgb(0%,0%,0%);fill-opacity:1;" d="M 32.449219 122.148438 C 31.398438 122.851562 30.398438 124.199219 29.800781 125.648438 C 28.800781 128 28.800781 128 29.800781 130.351562 C 30.398438 131.800781 31.398438 133.148438 32.449219 133.851562 L 34.148438 135 L 94.101562 135 C 148.148438 135 154.25 134.898438 155.800781 134.199219 C 160.699219 131.851562 160.699219 124.148438 155.800781 121.800781 C 154.25 121.101562 148.148438 121 94.101562 121 L 34.148438 121 Z M 32.449219 122.148438 "/>
<path style=" stroke:none;fill-rule:nonzero;fill:rgb(0%,0%,0%);fill-opacity:1;" d="M 32.75 161.949219 C 28.101562 164.75 28.25 171.699219 33 174.148438 C 34.648438 174.949219 37.148438 175 69.5 174.898438 C 103.351562 174.75 104.300781 174.699219 105.601562 173.75 C 107.5 172.300781 108.5 170.398438 108.5 168 C 108.5 165.351562 107.398438 163.199219 105.351562 162 C 103.800781 161.050781 102.601562 161 69 161 C 36.050781 161 34.148438 161.050781 32.75 161.949219 Z M 32.75 161.949219 "/>
<path style=" stroke:none;fill-rule:nonzero;fill:rgb(0%,0%,0%);fill-opacity:1;" d="M 32.648438 202 C 30.398438 203.351562 29.351562 205.199219 29.351562 207.75 C 29.351562 210.449219 30.75 212.851562 33 214.050781 C 34.648438 214.949219 36.5 215 68.648438 215 C 105.25 215 104.449219 215.050781 106.949219 212.351562 C 108.550781 210.601562 108.949219 206.800781 107.800781 204.550781 C 107.300781 203.699219 106.25 202.5 105.351562 202 C 103.800781 201.050781 102.601562 201 69 201 C 35.449219 201 34.199219 201.050781 32.648438 202 Z M 32.648438 202 "/>
</g>
</svg>
