<?xml version="1.0" standalone="no"?>
<!DOCTYPE svg PUBLIC "-//W3C//DTD SVG 20010904//EN"
 "http://www.w3.org/TR/2001/REC-SVG-20010904/DTD/svg10.dtd">
<svg version="1.0" xmlns="http://www.w3.org/2000/svg"
 width="512.000000pt" height="512.000000pt" viewBox="0 0 512.000000 512.000000"
 preserveAspectRatio="xMidYMid meet">

<g transform="translate(0.000000,512.000000) scale(0.100000,-0.100000)"
fill="#000000" stroke="none">
<path d="M495 4899 c-123 -29 -239 -127 -302 -256 l-38 -78 0 -1985 0 -1985
39 -80 c63 -130 178 -224 309 -255 26 -6 562 -10 1417 -10 1517 0 1428 -4
1559 63 75 38 157 122 195 199 48 99 58 162 54 352 l-3 173 -29 37 c-34 45
-79 66 -141 66 -62 0 -107 -21 -141 -66 -29 -37 -29 -40 -35 -203 -5 -139 -9
-171 -25 -198 -39 -67 46 -63 -1437 -63 -1491 0 -1372 -6 -1402 67 -13 31 -15
274 -15 1903 0 1629 2 1872 15 1903 30 72 -55 67 1102 67 l1043 0 0 -292 c0
-285 1 -294 23 -332 46 -82 40 -80 385 -86 l307 -5 5 -215 c5 -212 5 -216 30
-247 81 -100 222 -98 290 6 l30 44 0 334 0 334 -38 37 c-22 20 -70 66 -108
102 -204 190 -532 500 -639 602 l-80 78 -1165 -1 c-677 -1 -1182 -5 -1205 -10z
m2565 -669 l34 -30 -42 0 c-40 0 -42 1 -42 30 0 17 4 30 8 30 5 0 24 -13 42
-30z"/>
<path d="M994 3831 c-84 -14 -144 -88 -144 -176 0 -25 7 -59 14 -74 22 -41 81
-89 118 -96 18 -3 292 -5 609 -3 l575 3 35 24 c61 41 74 68 74 146 0 79 -15
107 -82 155 l-36 25 -561 1 c-308 1 -579 -1 -602 -5z"/>
<path d="M4380 3677 c-26 -7 -62 -23 -80 -35 -19 -11 -333 -320 -698 -684
-623 -624 -664 -667 -677 -713 -13 -48 -80 -274 -112 -380 -8 -27 -22 -78 -31
-112 l-16 -63 -871 0 c-759 0 -877 -2 -916 -15 -83 -29 -129 -90 -129 -170 0
-68 29 -118 95 -161 29 -19 56 -19 1066 -19 785 0 1042 3 1060 12 13 7 74 26
134 43 61 18 171 50 245 72 74 22 162 46 196 54 l60 15 675 677 c445 445 682
690 693 715 53 115 40 246 -33 341 -73 94 -373 381 -423 405 -59 28 -173 37
-238 18z m319 -580 l34 -38 -88 -89 -89 -89 -129 130 -130 130 88 89 89 90 96
-93 c52 -50 110 -109 129 -130z m-520 -343 l124 -125 -393 -394 -393 -393 -76
-22 c-42 -12 -85 -25 -96 -30 -33 -14 -189 -60 -192 -56 -2 1 6 32 16 67 11
35 34 116 52 179 l32 115 391 393 c215 215 395 392 401 392 5 0 66 -57 134
-126z"/>
<path d="M955 2744 c-71 -37 -105 -91 -105 -168 1 -65 37 -122 100 -153 l44
-23 751 0 c715 0 752 1 792 19 61 28 98 88 98 160 0 67 -17 104 -68 145 l-39
31 -771 3 c-685 2 -775 0 -802 -14z"/>
</g>
</svg>
