<?xml version="1.0" standalone="no"?>
<!DOCTYPE svg PUBLIC "-//W3C//DTD SVG 20010904//EN"
 "http://www.w3.org/TR/2001/REC-SVG-20010904/DTD/svg10.dtd">
<svg version="1.0" xmlns="http://www.w3.org/2000/svg"
 width="512.000000pt" height="512.000000pt" viewBox="0 0 512.000000 512.000000"
 preserveAspectRatio="xMidYMid meet">

<g transform="translate(0.000000,512.000000) scale(0.100000,-0.100000)"
fill="#000000" stroke="none">
<path d="M1130 5091 c-207 -9 -204 -7 -544 -341 -363 -357 -500 -507 -521
-569 -10 -32 -19 -115 -25 -252 -11 -226 -12 -2794 -1 -3284 l6 -310 34 -69
c18 -37 46 -82 61 -99 40 -46 128 -104 196 -130 l59 -22 1495 0 c1405 0 1499
1 1560 18 128 35 217 107 275 222 50 98 54 146 55 719 l0 450 598 600 c601
604 703 715 728 784 32 89 8 213 -59 302 -53 71 -209 225 -287 283 -72 54 -96
60 -227 55 -93 -3 -101 -5 -148 -37 -27 -19 -174 -158 -327 -309 l-276 -274
-4 959 c-5 1074 0 1001 -80 1123 -48 71 -118 126 -208 162 l-55 22 -1080 2
c-594 1 -1145 -1 -1225 -5z m1907 -280 l373 -6 37 -38 38 -37 3 -1097 2 -1096
-498 -501 c-456 -458 -499 -504 -505 -541 -4 -22 -7 -153 -7 -291 0 -194 3
-262 15 -301 23 -77 28 -78 360 -78 154 0 292 3 307 8 23 6 224 189 292 265
11 12 24 22 28 22 5 0 8 -159 6 -363 -3 -395 -4 -398 -61 -433 -31 -18 -72
-19 -1517 -19 -1643 0 -1524 -5 -1564 65 -21 35 -21 41 -24 1833 -1 988 1
1797 5 1798 5 0 166 4 358 8 254 6 358 12 378 22 56 26 58 40 64 425 l6 353
91 4 c163 6 1432 5 1813 -2z m-2197 -366 l0 -155 -157 0 -158 0 155 155 c85
85 156 155 157 155 2 0 3 -70 3 -155z m3748 -1279 c45 -24 242 -231 242 -254
0 -21 -81 -122 -157 -195 l-39 -37 -105 102 c-57 57 -124 125 -148 151 l-44
48 39 41 c44 45 172 158 180 158 3 0 17 -6 32 -14z m-303 -541 l150 -145 -695
-695 -695 -695 -144 2 -145 3 3 155 2 155 682 683 c375 375 684 682 687 681 3
0 73 -65 155 -144z"/>
<path d="M1444 4280 c-29 -12 -64 -63 -71 -104 -8 -48 13 -102 50 -128 l32
-23 830 0 c936 0 877 -5 909 76 22 55 13 111 -24 153 l-28 31 -839 2 c-461 1
-848 -2 -859 -7z"/>
<path d="M915 3490 c-220 -5 -231 -6 -262 -28 -66 -47 -67 -146 -3 -207 l31
-30 1225 0 1226 0 33 37 c19 20 37 51 40 70 8 45 -14 107 -48 132 -27 20 -45
21 -330 27 -356 8 -1583 7 -1912 -1z"/>
<path d="M662 2666 c-76 -69 -80 -138 -11 -207 l39 -39 1215 2 c1210 3 1214 3
1242 24 86 63 77 191 -17 233 -31 14 -167 16 -1231 19 l-1197 4 -40 -36z"/>
<path d="M713 1891 c-50 -9 -74 -28 -98 -81 -32 -72 7 -159 83 -180 42 -11
1204 -13 1341 -1 76 6 85 9 111 37 38 44 46 93 21 148 -38 86 13 81 -746 82
-368 1 -689 -1 -712 -5z"/>
<path d="M795 1091 c-126 -7 -157 -20 -181 -78 -22 -51 -10 -109 30 -149 28
-28 41 -33 106 -39 41 -3 359 -5 705 -3 693 3 670 1 708 65 25 43 25 118 -1
152 -41 56 -28 55 -667 57 -324 1 -640 -1 -700 -5z"/>
</g>
</svg>
