<?xml version="1.0" standalone="no"?>
<!DOCTYPE svg PUBLIC "-//W3C//DTD SVG 20010904//EN"
 "http://www.w3.org/TR/2001/REC-SVG-20010904/DTD/svg10.dtd">
<svg version="1.0" xmlns="http://www.w3.org/2000/svg"
 width="512.000000pt" height="512.000000pt" viewBox="0 0 512.000000 512.000000"
 preserveAspectRatio="xMidYMid meet">

<g transform="translate(0.000000,512.000000) scale(0.100000,-0.100000)"
fill="#000000" stroke="none">
<path d="M980 5084 c-30 -8 -79 -29 -107 -46 -69 -42 -773 -748 -801 -803 -55
-111 -52 10 -52 -1994 0 -1208 4 -1861 11 -1890 36 -157 168 -286 327 -320 38
-8 475 -11 1535 -11 1300 0 1490 2 1542 15 163 43 284 171 315 335 6 31 10
259 10 554 l0 501 639 640 c726 728 696 691 696 845 0 131 -28 180 -204 353
-175 173 -211 192 -351 192 -146 0 -152 -5 -493 -343 l-287 -286 0 936 c0 586
-4 955 -10 988 -31 164 -152 292 -315 335 -87 22 -2370 22 -2455 -1z m2426
-290 c15 -11 37 -33 48 -48 21 -27 21 -33 22 -1116 l1 -1088 -494 -493 c-272
-272 -501 -506 -509 -521 -11 -22 -14 -85 -14 -319 0 -414 -24 -389 384 -389
215 0 284 3 309 14 18 8 95 77 172 155 77 78 143 141 148 141 4 0 7 -163 5
-362 -3 -411 -3 -409 -83 -448 -41 -20 -67 -20 -1506 -20 -1429 0 -1465 1
-1507 20 -33 15 -47 29 -62 64 -20 43 -20 75 -18 1833 l3 1788 360 5 c391 5
390 5 425 63 19 30 20 53 20 383 0 193 3 354 7 357 4 4 514 6 1134 5 1121 -3
1128 -3 1155 -24z m-2576 -344 l0 -160 -162 0 -163 0 160 160 c88 88 161 160
162 160 2 0 3 -72 3 -160z m3863 -1389 c156 -154 156 -147 21 -282 l-99 -99
-150 150 -150 150 101 100 c80 79 107 100 129 100 23 0 52 -23 148 -119z
m-968 -1271 l-690 -690 -147 0 -148 0 0 152 0 153 687 687 688 688 150 -150
150 -150 -690 -690z"/>
<path d="M1422 4280 c-96 -59 -94 -197 5 -245 27 -13 134 -15 850 -15 794 0
819 1 850 20 89 54 82 200 -11 244 -30 14 -121 16 -848 16 -794 0 -814 -1
-846 -20z"/>
<path d="M655 3481 c-37 -22 -60 -55 -69 -98 -10 -45 23 -117 66 -143 33 -20
46 -20 1231 -20 1080 0 1202 2 1233 16 98 47 98 201 0 248 -31 14 -153 16
-1233 16 -1149 0 -1199 -1 -1228 -19z"/>
<path d="M649 2677 c-21 -14 -41 -41 -53 -70 -20 -47 -20 -47 0 -94 12 -29 32
-56 53 -70 l34 -23 1199 0 c1081 0 1203 2 1234 16 98 47 98 201 0 248 -31 14
-153 16 -1234 16 l-1199 0 -34 -23z"/>
<path d="M655 1881 c-93 -56 -90 -195 5 -244 33 -16 83 -17 730 -15 677 3 696
4 722 23 38 29 58 67 58 115 0 53 -22 96 -63 120 -31 19 -55 20 -727 20 -659
0 -697 -1 -725 -19z"/>
<path d="M653 1080 c-45 -27 -66 -64 -66 -115 0 -54 28 -102 73 -126 33 -18
70 -19 713 -19 732 0 716 -1 766 53 32 35 40 111 17 156 -10 17 -31 41 -49 51
-31 19 -55 20 -727 20 -671 0 -696 -1 -727 -20z"/>
</g>
</svg>
