<?xml version="1.0" standalone="no"?>
<!DOCTYPE svg PUBLIC "-//W3C//DTD SVG 20010904//EN"
 "http://www.w3.org/TR/2001/REC-SVG-20010904/DTD/svg10.dtd">
<svg version="1.0" xmlns="http://www.w3.org/2000/svg"
 width="128.000000pt" height="128.000000pt" viewBox="0 0 128.000000 128.000000"
 preserveAspectRatio="xMidYMid meet">

<g transform="translate(0.000000,128.000000) scale(0.100000,-0.100000)"
fill="#000000" stroke="none">
<path d="M267 1271 c-31 -7 -59 -29 -138 -107 -69 -68 -102 -110 -109 -134 -6
-20 -10 -224 -10 -485 0 -429 1 -452 20 -482 38 -63 40 -63 450 -63 408 0 425
2 454 59 12 23 16 62 16 163 l0 132 165 166 c158 159 165 168 165 206 0 34 -7
46 -48 87 -40 40 -54 47 -86 47 -34 0 -47 -8 -117 -77 l-79 -76 0 241 c0 257
-3 278 -49 309 -23 16 -57 18 -311 20 -157 1 -302 -2 -323 -6z m607 -87 c3 -9
6 -136 6 -282 l0 -267 -125 -125 -125 -125 0 -87 0 -87 36 -7 c19 -3 58 -4 85
-2 42 4 57 12 90 44 l40 39 -3 -100 -3 -100 -80 -8 c-96 -10 -676 -4 -693 7
-9 5 -12 118 -12 462 l0 454 81 0 c117 0 119 2 119 110 l0 90 289 0 c254 0
290 -2 295 -16z m-654 -74 l0 -40 -42 0 -42 0 39 40 c21 22 40 40 42 40 2 0 3
-18 3 -40z m962 -347 c34 -32 34 -40 6 -70 l-22 -23 -38 37 -38 37 22 23 c27
29 36 29 70 -4z m-102 -108 l34 -35 -174 -175 c-155 -155 -178 -175 -207 -175
-32 0 -33 1 -33 42 0 42 4 46 167 210 92 93 170 168 173 168 4 0 21 -16 40
-35z"/>
<path d="M354 1055 c-19 -47 45 -59 285 -54 157 4 178 10 166 48 -6 20 -12 21
-226 21 -186 0 -221 -2 -225 -15z"/>
<path d="M164 855 c-11 -26 3 -42 43 -48 50 -9 495 -7 553 1 40 6 45 10 45 32
l0 25 -318 3 c-276 2 -318 0 -323 -13z"/>
<path d="M163 654 c-3 -9 -2 -24 4 -33 9 -14 45 -16 316 -16 321 0 336 2 322
44 -6 21 -10 21 -321 21 -282 0 -315 -2 -321 -16z"/>
<path d="M164 455 c-10 -25 3 -42 36 -49 38 -7 163 -6 270 3 72 6 75 7 75 31
l0 25 -188 3 c-160 2 -188 0 -193 -13z"/>
<path d="M167 264 c-16 -16 -6 -45 19 -54 28 -11 295 -12 334 -1 18 5 25 14
25 31 l0 25 -186 3 c-102 1 -188 -1 -192 -4z"/>
</g>
</svg>
