<?xml version="1.0" standalone="no"?>
<!DOCTYPE svg PUBLIC "-//W3C//DTD SVG 20010904//EN"
 "http://www.w3.org/TR/2001/REC-SVG-20010904/DTD/svg10.dtd">
<svg version="1.0" xmlns="http://www.w3.org/2000/svg"
 width="85.000000pt" height="85.000000pt" viewBox="0 0 85.000000 85.000000"
 preserveAspectRatio="xMidYMid meet">

<g transform="translate(0.000000,85.000000) scale(0.100000,-0.100000)"
fill="#000000" stroke="none">
<path d="M165 841 c-11 -5 -51 -41 -90 -80 l-70 -72 -3 -313 -3 -313 30 -32
29 -31 261 0 262 0 24 25 c23 22 25 32 25 117 l0 92 110 111 c125 127 132 146
79 196 -46 43 -74 38 -136 -23 l-53 -52 0 166 c0 229 19 212 -242 215 -111 1
-212 -2 -223 -6z m413 -236 l2 -190 -80 -80 -80 -80 0 -57 0 -58 57 0 c44 0
62 5 80 22 l23 21 0 -66 0 -67 -257 2 -258 3 -3 301 -2 302 65 7 65 7 0 64 0
64 193 -2 192 -3 3 -190z m-438 130 c0 -18 -5 -25 -20 -25 -24 0 -25 8 -3 32
21 23 23 23 23 -7z m660 -250 c0 -7 -7 -18 -15 -25 -13 -11 -20 -9 -41 11
l-25 24 22 18 c20 16 23 16 40 1 11 -10 19 -23 19 -29z m-82 -48 l22 -23 -118
-117 c-124 -124 -162 -145 -162 -90 0 22 24 52 112 140 62 62 115 113 119 113
3 0 15 -10 27 -23z"/>
<path d="M235 699 c-15 -24 17 -29 156 -27 120 3 144 5 144 18 0 13 -24 15
-147 18 -100 2 -149 -1 -153 -9z"/>
<path d="M106 565 c-11 -30 31 -36 224 -33 127 2 193 7 201 15 28 28 -4 33
-211 33 -175 0 -209 -2 -214 -15z"/>
<path d="M112 438 c-8 -8 -9 -15 -1 -25 9 -10 58 -13 215 -13 204 0 229 4 204
35 -10 12 -49 15 -209 15 -138 0 -201 -4 -209 -12z"/>
<path d="M110 290 c0 -20 5 -20 128 -18 105 3 127 6 127 18 0 12 -22 15 -127
18 -123 2 -128 2 -128 -18z"/>
<path d="M110 160 c0 -20 5 -20 128 -18 105 3 127 6 127 18 0 12 -22 15 -127
18 -123 2 -128 2 -128 -18z"/>
</g>
</svg>
