<?xml version="1.0" standalone="no"?>
<!DOCTYPE svg PUBLIC "-//W3C//DTD SVG 20010904//EN"
 "http://www.w3.org/TR/2001/REC-SVG-20010904/DTD/svg10.dtd">
<svg version="1.0" xmlns="http://www.w3.org/2000/svg"
 width="1024.000000pt" height="1024.000000pt" viewBox="0 0 1024.000000 1024.000000"
 preserveAspectRatio="xMidYMid meet">

<g transform="translate(0.000000,1024.000000) scale(0.100000,-0.100000)"
fill="#000000" stroke="none">
<path d="M4933 5343 l-3792 -3798 225 -225 224 -225 783 783 784 784 104 -45
c850 -363 1773 -469 2719 -311 1045 174 2046 736 2838 1594 342 370 648 794
818 1132 l45 89 -64 123 c-212 407 -573 874 -988 1281 -296 290 -514 465 -889
713 -2 1 322 329 720 727 l725 725 -225 225 c-124 124 -227 225 -230 225 -3 0
-1711 -1709 -3797 -3797z m1657 486 c60 -118 113 -268 142 -403 19 -86 22
-132 22 -306 0 -176 -3 -220 -23 -310 -141 -653 -626 -1133 -1276 -1262 -159
-32 -424 -32 -582 0 -213 43 -413 123 -573 231 -12 9 202 228 1090 1116 l1105
1105 23 -38 c13 -20 45 -80 72 -133z"/>
<path d="M4805 7983 c-604 -51 -1071 -165 -1580 -385 -788 -341 -1521 -925
-2108 -1679 -187 -241 -360 -506 -462 -709 l-53 -107 57 -109 c219 -415 578
-882 987 -1285 160 -156 376 -349 392 -349 4 0 352 345 774 768 l767 767 -11
114 c-13 132 0 306 32 451 121 544 525 995 1050 1173 220 75 476 104 675 77
l60 -8 547 546 c301 301 544 550 540 553 -11 11 -324 86 -472 113 -153 29
-320 51 -495 66 -109 9 -603 11 -700 3z"/>
</g>
</svg>
