<?xml version="1.0" standalone="no"?>
<!DOCTYPE svg PUBLIC "-//W3C//DTD SVG 20010904//EN"
 "http://www.w3.org/TR/2001/REC-SVG-20010904/DTD/svg10.dtd">
<svg version="1.0" xmlns="http://www.w3.org/2000/svg"
 width="248.000000pt" height="252.000000pt" viewBox="0 0 248.000000 252.000000"
 preserveAspectRatio="xMidYMid meet">

<g transform="translate(0.000000,252.000000) scale(0.100000,-0.100000)"
fill="#000000" stroke="none">
<path d="M1 2463 c0 -32 3 -52 6 -45 2 6 12 12 22 12 9 0 23 9 31 20 8 11 22
20 32 20 10 0 18 5 18 10 0 6 7 10 16 10 8 0 22 7 30 15 14 13 6 15 -70 15
l-86 0 1 -57z"/>
<path d="M328 2513 c12 -2 22 -9 22 -14 0 -5 18 -9 40 -9 22 0 40 -4 40 -10 0
-5 8 -10 18 -10 10 0 24 -9 32 -20 8 -11 21 -20 30 -20 9 0 22 -9 30 -20 8
-12 26 -20 42 -20 15 0 28 -4 28 -10 0 -5 -9 -10 -20 -10 -13 0 -20 -7 -20
-20 0 -16 -7 -20 -30 -20 -16 0 -30 5 -30 10 0 6 -22 10 -50 10 -27 0 -50 5
-50 10 0 6 -13 10 -30 10 -16 0 -30 5 -30 10 0 6 -9 10 -20 10 -11 0 -20 5
-20 10 0 6 -43 10 -110 10 -67 0 -110 -4 -110 -10 0 -14 -37 -12 -44 3 -5 10
-7 10 -12 0 -3 -7 -12 -13 -20 -13 -12 0 -14 -151 -12 -1107 2 -874 6 -1107
16 -1111 6 -2 12 -12 12 -23 0 -10 5 -19 10 -19 6 0 10 5 10 10 0 6 9 10 20
10 15 0 20 -7 20 -26 0 -14 7 -32 15 -40 13 -14 17 -14 30 0 8 8 15 26 15 40
0 14 5 26 10 26 6 0 10 -18 10 -40 0 -22 3 -40 6 -40 13 0 34 30 34 50 0 25
22 50 44 50 9 0 16 5 16 10 0 14 37 12 44 -2 5 -10 7 -10 12 0 6 13 64 17 64
4 0 -4 -9 -14 -20 -22 -26 -19 -25 -38 2 -62 19 -16 20 -21 8 -29 -11 -8 -12
-12 -3 -16 7 -2 13 -16 13 -29 l0 -24 780 0 c687 0 780 2 780 15 0 8 -9 15
-20 15 -13 0 -20 7 -20 20 0 11 5 20 10 20 6 0 10 -4 10 -10 0 -5 9 -10 20
-10 13 0 20 7 20 20 0 24 6 25 28 3 12 -12 13 -18 4 -21 -19 -6 -14 -22 8 -22
16 0 20 7 20 30 0 30 14 40 24 18 5 -10 7 -10 12 -1 3 7 14 13 25 13 17 0 19
8 19 70 0 40 4 70 10 70 6 0 10 -4 10 -10 0 -5 9 -10 20 -10 16 0 20 -7 20
-30 0 -16 5 -30 10 -30 6 0 10 12 10 26 0 14 6 32 14 40 19 18 26 18 26 -2 0
-23 25 -44 54 -44 25 0 26 -1 26 -70 0 -40 4 -70 10 -70 6 0 10 18 10 40 0 33
3 40 20 40 12 0 20 7 20 16 0 18 23 44 40 44 20 0 40 -28 40 -54 0 -14 -4 -26
-10 -26 -5 0 -10 -12 -10 -26 0 -15 -10 -35 -22 -45 -11 -11 -16 -19 -10 -19
6 0 17 7 26 15 19 19 26 19 26 0 0 -8 7 -15 15 -15 13 0 15 147 15 1260 l0
1260 -1087 -1 c-599 -1 -1078 -4 -1065 -6z m1702 -13 c0 -5 18 -10 40 -10 22
0 40 -4 40 -10 0 -5 14 -10 30 -10 17 0 30 -4 30 -10 0 -5 8 -10 18 -10 10 0
24 -9 32 -20 8 -11 22 -20 32 -20 10 0 18 -4 18 -10 0 -5 9 -10 20 -10 11 0
20 -4 20 -10 0 -15 -57 -12 -64 3 -5 10 -7 10 -12 0 -7 -15 -44 -17 -44 -3 0
6 -53 10 -140 10 -87 0 -140 -4 -140 -10 0 -5 -13 -10 -30 -10 -16 0 -30 -4
-30 -10 0 -5 -18 -10 -40 -10 -22 0 -40 -4 -40 -10 0 -5 -13 -10 -30 -10 -16
0 -30 -4 -30 -10 0 -5 -22 -10 -50 -10 -27 0 -50 -4 -50 -10 0 -5 -9 -10 -19
-10 -11 0 -21 -6 -23 -12 -3 -9 -9 -8 -21 4 -19 18 -23 48 -7 48 6 0 10 5 10
10 0 14 -38 12 -43 -2 -2 -7 -8 -10 -12 -6 -12 12 22 38 49 38 14 0 26 5 26
10 0 6 8 10 18 10 10 0 24 9 32 20 8 11 22 20 32 20 10 0 18 5 18 10 0 6 9 10
20 10 11 0 20 5 20 10 0 6 18 10 40 10 22 0 40 5 40 10 0 6 43 10 110 10 67 0
110 4 110 10 0 6 5 10 10 10 6 0 10 -4 10 -10z m-1740 -260 c0 -5 -9 -10 -20
-10 -11 0 -20 -4 -20 -10 0 -5 -7 -10 -15 -10 -20 0 -65 -45 -65 -65 0 -8 -4
-15 -10 -15 -6 0 -10 -27 -10 -60 0 -33 -3 -60 -6 -60 -3 0 -13 8 -22 17 -12
12 -13 18 -4 21 7 2 12 23 12 53 0 27 5 49 10 49 6 0 10 7 10 16 0 20 24 44
44 44 9 0 16 5 16 10 0 6 9 10 20 10 11 0 20 5 20 10 0 6 9 10 20 10 11 0 20
-4 20 -10z m1240 -76 c0 -11 -29 -34 -44 -34 -9 0 -16 -8 -16 -20 0 -11 -4
-20 -10 -20 -5 0 -10 -9 -10 -20 0 -11 -4 -20 -10 -20 -5 0 -10 -18 -10 -40 0
-33 -3 -40 -19 -40 -11 0 -21 5 -23 12 -6 16 -58 -35 -58 -57 0 -8 9 -15 20
-15 11 0 20 5 20 10 0 6 9 10 20 10 11 0 20 5 20 10 0 6 9 10 20 10 11 0 20 5
20 10 0 6 8 10 18 10 10 0 24 9 32 20 11 15 26 20 62 20 26 0 48 5 48 10 0 6
14 10 30 10 17 0 30 -4 30 -10 0 -6 33 -10 80 -10 47 0 80 -4 80 -10 0 -5 9
-10 20 -10 11 0 20 -4 20 -10 0 -5 18 -10 40 -10 22 0 40 -4 40 -10 0 -5 9
-10 19 -10 11 0 22 -6 25 -12 5 -10 7 -10 12 0 13 27 64 2 64 -32 0 -9 7 -16
16 -16 22 0 44 -25 44 -50 0 -39 -23 -50 -104 -50 -75 0 -76 0 -76 26 0 27
-20 54 -41 54 -6 0 -20 9 -30 21 -16 19 -20 20 -34 6 -8 -9 -15 -21 -15 -27 0
-6 -16 -26 -35 -45 -32 -32 -39 -35 -95 -35 -59 0 -63 2 -100 40 -36 38 -70
52 -70 30 0 -18 -35 -11 -50 10 -15 21 -50 28 -50 10 0 -5 -22 -10 -50 -10
-27 0 -50 5 -50 10 0 15 -29 12 -46 -4 -8 -8 -14 -22 -14 -30 0 -9 -4 -16 -10
-16 -5 0 -10 -9 -10 -20 0 -11 -4 -20 -10 -20 -5 0 -10 -8 -10 -18 0 -10 -9
-24 -20 -32 -11 -8 -20 -22 -20 -32 0 -10 -7 -18 -16 -18 -33 0 -60 -53 -32
-62 9 -3 8 -9 -4 -22 -17 -16 -19 -16 -43 8 -33 33 -36 96 -5 96 17 0 20 7 20
40 0 22 5 40 10 40 6 0 10 14 10 30 0 17 5 30 10 30 6 0 10 9 10 20 0 11 5 20
10 20 6 0 10 7 10 16 0 20 24 44 44 44 9 0 16 8 16 20 0 13 7 20 20 20 13 0
20 7 20 20 0 16 7 20 30 20 17 0 30 5 30 10 0 6 9 10 20 10 13 0 20 -7 20 -20
0 -11 5 -20 10 -20 6 0 10 8 10 18 0 10 9 24 20 32 11 8 20 20 20 28 0 18 46
62 65 62 8 0 15 5 15 10 0 6 5 10 10 10 6 0 10 -3 10 -6z m-1040 -104 c0 -5
18 -10 40 -10 22 0 40 -4 40 -10 0 -5 9 -10 19 -10 11 0 22 -6 25 -12 5 -10 7
-10 12 0 10 20 34 14 64 -18 15 -16 35 -30 44 -30 9 0 16 -8 16 -20 0 -11 5
-20 10 -20 6 0 10 -9 10 -20 0 -13 -7 -20 -20 -20 -11 0 -20 -4 -20 -10 0 -6
-27 -10 -60 -10 l-60 0 0 30 c0 23 -4 30 -20 30 -11 0 -20 5 -20 10 0 6 -9 10
-19 10 -11 0 -21 6 -23 12 -7 19 -38 -16 -38 -42 0 -11 -11 -32 -25 -45 -19
-20 -34 -25 -75 -25 -47 0 -55 4 -90 40 -44 45 -50 48 -50 20 0 -11 -4 -20
-10 -20 -5 0 -10 5 -10 10 0 6 -9 10 -19 10 -11 0 -22 6 -25 13 -5 10 -7 10
-12 0 -3 -7 -23 -13 -45 -13 -32 0 -39 3 -39 20 0 11 7 20 16 20 8 0 37 23 64
50 33 34 57 50 74 50 14 0 26 5 26 10 0 6 43 10 110 10 67 0 110 -4 110 -10z
m160 -320 c0 -5 -8 -10 -18 -10 -10 0 -24 -9 -32 -20 -8 -12 -26 -20 -42 -20
-15 0 -28 -4 -28 -10 0 -5 -18 -10 -40 -10 -22 0 -40 -4 -40 -10 0 -5 -9 -10
-20 -10 -11 0 -20 5 -20 10 0 6 9 10 20 10 11 0 20 5 20 10 0 6 14 10 30 10
17 0 30 5 30 10 0 6 9 10 20 10 11 0 20 5 20 10 0 6 14 10 30 10 17 0 30 5 30
10 0 6 9 10 20 10 11 0 20 -4 20 -10z m1320 -80 c0 -5 -9 -10 -20 -10 -11 0
-20 -4 -20 -10 0 -5 -13 -10 -30 -10 -16 0 -30 -4 -30 -10 0 -5 -22 -10 -50
-10 -27 0 -50 -4 -50 -10 0 -5 -18 -10 -40 -10 -22 0 -40 5 -40 10 0 6 14 10
30 10 17 0 30 5 30 10 0 6 14 10 30 10 17 0 30 5 30 10 0 6 23 10 50 10 28 0
50 5 50 10 0 6 14 10 30 10 17 0 30 -4 30 -10z m-780 -60 c0 -5 18 -10 40 -10
22 0 40 -4 40 -10 0 -5 18 -10 40 -10 22 0 40 -4 40 -10 0 -5 14 -10 30 -10
17 0 30 -4 30 -10 0 -5 9 -10 20 -10 11 0 20 -4 20 -10 0 -5 7 -10 15 -10 8 0
62 -47 120 -105 78 -77 105 -111 105 -130 0 -14 5 -25 10 -25 6 0 10 -13 10
-30 0 -20 5 -30 15 -30 20 0 125 -105 125 -125 0 -8 5 -15 10 -15 6 0 10 -8
10 -18 0 -10 9 -24 20 -32 11 -8 20 -21 20 -30 0 -9 9 -22 20 -30 11 -8 20
-22 20 -32 0 -10 5 -18 10 -18 6 0 10 -9 10 -20 0 -11 5 -20 10 -20 6 0 10 -9
10 -20 0 -11 5 -20 10 -20 6 0 10 -13 10 -30 0 -16 -4 -30 -10 -30 -5 0 -10 5
-10 10 0 6 -4 10 -10 10 -5 0 -10 -9 -10 -20 0 -11 -4 -20 -8 -20 -4 0 -14 9
-22 20 -8 11 -22 20 -32 20 -10 0 -18 5 -18 10 0 6 -9 10 -20 10 -11 0 -20 -4
-20 -10 0 -5 5 -10 10 -10 6 0 10 -9 10 -20 0 -17 -7 -20 -40 -20 l-40 0 0
-50 c0 -27 -4 -50 -10 -50 -5 0 -10 -9 -10 -20 0 -11 -4 -20 -10 -20 -5 0 -10
-9 -10 -20 0 -11 -4 -20 -10 -20 -5 0 -10 -8 -10 -18 0 -10 -9 -24 -20 -32
-11 -8 -20 -20 -20 -28 0 -16 -45 -62 -61 -62 -6 0 -24 -13 -39 -30 -15 -16
-35 -30 -44 -30 -9 0 -16 -4 -16 -10 0 -5 -8 -10 -18 -10 -10 0 -24 -9 -32
-20 -8 -11 -22 -20 -32 -20 -10 0 -18 -4 -18 -10 0 -5 -13 -10 -30 -10 -16 0
-30 -4 -30 -10 0 -5 -18 -10 -40 -10 -22 0 -40 -4 -40 -10 0 -5 -18 -10 -40
-10 -22 0 -40 -4 -40 -10 0 -5 -9 -10 -20 -10 -11 0 -20 5 -20 10 0 6 -18 10
-40 10 -22 0 -40 5 -40 10 0 6 18 10 40 10 22 0 40 5 40 10 0 6 23 10 50 10
28 0 50 5 50 10 0 6 25 10 56 10 57 0 84 14 84 44 0 9 5 16 10 16 6 0 10 9 10
20 0 17 7 20 50 20 l50 0 0 40 c0 45 5 49 31 19 l18 -21 26 26 c19 19 25 35
25 71 0 56 -18 60 -63 13 -19 -21 -32 -28 -34 -20 -7 19 -57 14 -73 -8 -15
-21 -50 -28 -50 -10 0 6 -9 10 -20 10 -11 0 -20 -4 -20 -10 0 -5 -7 -10 -16
-10 -20 0 -44 -24 -44 -44 0 -9 -4 -16 -10 -16 -5 0 -10 9 -10 20 0 17 -7 20
-50 20 -27 0 -50 -4 -50 -10 0 -5 -9 -10 -20 -10 -11 0 -20 5 -20 10 0 6 -9
10 -20 10 -11 0 -20 5 -20 10 0 6 -18 10 -40 10 -22 0 -40 -4 -40 -10 0 -5
-13 -10 -30 -10 -16 0 -30 5 -30 10 0 6 -9 10 -20 10 -11 0 -20 5 -20 10 0 6
-13 10 -30 10 -16 0 -30 -4 -30 -10 0 -5 -18 -10 -39 -10 -22 0 -42 -6 -45
-12 -5 -10 -7 -10 -12 0 -3 6 -19 12 -35 12 -16 0 -29 5 -29 10 0 15 -29 12
-46 -4 -8 -8 -14 -31 -14 -50 0 -20 -4 -36 -10 -36 -5 0 -10 9 -10 20 0 11 -4
20 -10 20 -5 0 -10 9 -10 20 0 13 -7 20 -20 20 -17 0 -20 7 -20 50 0 28 5 50
10 50 15 0 13 117 -2 124 -10 5 -10 7 0 12 6 3 12 17 12 31 0 26 26 60 38 49
3 -4 0 -12 -8 -17 -11 -8 -12 -12 -2 -16 6 -2 12 -20 12 -40 0 -19 6 -41 14
-49 22 -22 76 -17 99 9 13 15 21 18 24 10 5 -15 43 -17 43 -3 0 6 60 10 160
10 100 0 160 4 160 10 0 6 14 10 30 10 17 0 30 -4 30 -10 0 -15 70 -12 86 4 8
8 14 22 14 30 0 9 3 16 6 16 11 0 34 -29 34 -44 0 -9 8 -16 19 -16 11 0 22 -6
25 -12 5 -10 7 -10 12 0 3 6 14 12 25 12 10 0 19 5 19 10 0 18 35 11 50 -10
19 -26 38 -25 63 3 13 15 21 18 24 10 3 -7 13 -13 23 -13 10 0 20 -6 22 -12 3
-9 9 -8 21 4 21 21 23 94 3 114 -21 21 -46 17 -46 -6 0 -13 -7 -20 -20 -20
-16 0 -20 7 -20 30 0 23 -4 30 -20 30 -11 0 -20 -4 -20 -10 0 -5 -9 -10 -20
-10 -11 0 -20 -4 -20 -10 0 -5 -4 -10 -10 -10 -5 0 -10 9 -10 20 0 11 -4 20
-10 20 -5 0 -10 9 -10 20 0 13 -7 20 -20 20 -11 0 -20 5 -20 10 0 6 -9 10 -20
10 -11 0 -20 -4 -20 -10 0 -6 -27 -10 -60 -10 -33 0 -60 4 -60 10 0 6 -43 10
-110 10 -67 0 -110 -4 -110 -10 0 -5 -22 -10 -50 -10 -27 0 -50 5 -50 10 0 6
-21 10 -46 10 -44 0 -74 -16 -74 -40 0 -17 -30 -44 -38 -35 -4 4 -1 10 6 12 6
3 12 13 12 24 0 15 -7 19 -36 19 -27 0 -43 -7 -64 -30 -15 -16 -33 -30 -40
-30 -7 0 -25 -13 -40 -30 -32 -35 -60 -39 -60 -10 0 11 5 20 10 20 6 0 10 9
10 20 0 11 5 20 10 20 6 0 10 9 10 20 0 11 5 20 10 20 6 0 10 5 10 10 0 6 -9
10 -20 10 -11 0 -20 5 -20 10 0 6 -13 10 -30 10 -27 0 -30 3 -30 30 0 17 5 30
10 30 6 0 10 14 10 30 0 17 5 30 10 30 6 0 10 7 10 15 0 22 52 73 58 57 2 -7
12 -12 23 -12 10 0 19 -4 19 -10 0 -5 9 -10 20 -10 11 0 20 5 20 10 0 6 9 10
20 10 11 0 20 5 20 10 0 6 18 10 40 10 22 0 40 5 40 10 0 6 9 10 20 10 11 0
20 5 20 10 0 6 9 10 20 10 13 0 20 7 20 20 0 16 -7 20 -30 20 -16 0 -30 3 -30
6 0 14 31 34 54 34 14 0 26 5 26 10 0 6 9 10 20 10 11 0 20 7 20 15 0 19 84
105 103 105 7 0 19 9 27 20 8 11 22 20 32 20 10 0 18 5 18 10 0 6 18 10 40 10
l40 0 0 40 c0 38 -2 40 -30 40 -25 0 -30 4 -30 25 0 14 6 32 13 40 14 16 47
20 47 5z m-660 -296 c0 -3 -18 -23 -40 -44 -22 -21 -40 -46 -40 -54 0 -9 -4
-16 -10 -16 -5 0 -10 -9 -10 -20 0 -11 -4 -20 -10 -20 -5 0 -10 9 -10 20 0 11
5 20 10 20 6 0 10 9 10 20 0 11 5 20 10 20 6 0 10 7 10 16 0 20 24 44 44 44 9
0 16 5 16 10 0 6 5 10 10 10 6 0 10 -3 10 -6z m1400 -584 c0 -5 -4 -10 -10
-10 -5 0 -10 5 -10 10 0 6 5 10 10 10 6 0 10 -4 10 -10z m-1500 -200 c0 -5 -9
-10 -20 -10 -11 0 -20 5 -20 10 0 6 9 10 20 10 11 0 20 -4 20 -10z m246 -144
c8 -8 14 -24 14 -36 0 -12 6 -28 14 -36 16 -16 86 -19 86 -4 0 6 5 10 10 10
15 0 12 -29 -4 -46 -8 -8 -24 -14 -36 -14 -12 0 -35 -13 -50 -30 -27 -29 -60
-40 -60 -20 0 6 -9 10 -20 10 -13 0 -20 7 -20 20 0 11 -4 20 -10 20 -5 0 -10
9 -10 20 0 13 7 20 20 20 16 0 20 7 20 30 0 17 5 30 10 30 6 0 10 9 10 20 0
24 6 25 26 6z m114 -36 c0 -5 -4 -10 -10 -10 -5 0 -10 5 -10 10 0 6 5 10 10
10 6 0 10 -4 10 -10z m-420 -38 c0 -4 -9 -14 -20 -22 -12 -8 -20 -26 -20 -42
0 -15 -4 -28 -10 -28 -19 0 -10 51 13 75 23 24 37 31 37 17z m1780 -22 c0 -5
-4 -10 -10 -10 -5 0 -10 5 -10 10 0 6 5 10 10 10 6 0 10 -4 10 -10z"/>
<path d="M1663 1955 c-18 -20 -16 -25 7 -25 13 0 20 7 20 20 0 23 -10 25 -27
5z"/>
<path d="M1090 1670 c0 -11 5 -20 10 -20 6 0 10 9 10 20 0 11 -4 20 -10 20 -5
0 -10 -9 -10 -20z"/>
<path d="M350 2000 c0 -5 5 -10 10 -10 6 0 10 5 10 10 0 6 -4 10 -10 10 -5 0
-10 -4 -10 -10z"/>
<path d="M1230 1510 c0 -11 -4 -20 -10 -20 -5 0 -10 -18 -10 -40 0 -22 -4 -40
-10 -40 -5 0 -10 -4 -10 -10 0 -6 40 -10 100 -10 60 0 100 4 100 10 0 6 9 10
20 10 11 0 20 5 20 10 0 6 -4 10 -10 10 -5 0 -10 7 -10 15 0 20 -45 65 -65 65
-8 0 -15 5 -15 10 0 6 -22 10 -50 10 -43 0 -50 -3 -50 -20z"/>
<path d="M1010 1200 c0 -5 -9 -10 -20 -10 -13 0 -20 -7 -20 -20 0 -11 -4 -20
-10 -20 -5 0 -10 -7 -10 -15 0 -19 -44 -65 -62 -65 -8 0 -20 -9 -28 -20 -8
-11 -22 -20 -32 -20 -11 0 -18 -7 -18 -20 0 -22 -16 -27 -22 -8 -4 11 -78 -53
-78 -67 0 -3 14 -5 30 -5 17 0 30 5 30 10 0 6 18 10 40 10 22 0 40 -4 40 -10
0 -6 47 -10 120 -10 73 0 120 4 120 10 0 6 40 10 100 10 60 0 100 -4 100 -10
0 -6 53 -10 140 -10 87 0 140 -4 140 -10 0 -5 23 -10 50 -10 43 0 50 3 50 20
0 22 -15 27 -24 8 -5 -10 -7 -10 -12 0 -3 6 -19 12 -35 12 -22 0 -29 5 -29 20
0 17 -7 20 -40 20 -22 0 -40 5 -40 10 0 6 -18 10 -40 10 -22 0 -40 5 -40 10 0
6 -18 10 -40 10 -22 0 -40 -4 -40 -10 0 -5 -22 -10 -49 -10 -30 0 -52 -5 -55
-12 -5 -10 -7 -10 -12 0 -3 6 -19 12 -35 12 -22 0 -29 5 -29 19 0 11 5 21 12
23 21 7 -38 58 -67 58 -21 0 -25 5 -25 30 0 17 -4 30 -10 30 -5 0 -10 9 -10
20 0 13 -7 20 -20 20 -11 0 -20 -4 -20 -10z"/>
<path d="M670 1000 c0 -5 5 -10 10 -10 6 0 10 5 10 10 0 6 -4 10 -10 10 -5 0
-10 -4 -10 -10z"/>
<path d="M1690 740 c0 -5 5 -10 10 -10 6 0 10 5 10 10 0 6 -4 10 -10 10 -5 0
-10 -4 -10 -10z"/>
<path d="M630 260 c0 -5 5 -10 10 -10 6 0 10 5 10 10 0 6 -4 10 -10 10 -5 0
-10 -4 -10 -10z"/>
<path d="M270 140 c0 -5 5 -10 10 -10 6 0 10 5 10 10 0 6 -4 10 -10 10 -5 0
-10 -4 -10 -10z"/>
<path d="M2403 135 c-15 -17 -17 -45 -3 -45 6 0 10 9 10 20 0 11 5 20 10 20 6
0 10 5 10 10 0 14 -13 12 -27 -5z"/>
<path d="M2070 20 c0 -5 5 -10 10 -10 6 0 10 5 10 10 0 6 -4 10 -10 10 -5 0
-10 -4 -10 -10z"/>
</g>
</svg>
